<svg xmlns="http://www.w3.org/2000/svg" viewBox="0 0 331.21 72.42"><defs><style>.cls-1{fill:#898989;}.cls-2{fill:gray;}</style></defs><title>Ресурс 4</title><g id="Слой_2" data-name="Слой 2"><g id="Слой_1-2" data-name="Слой 1"><path class="cls-1" d="M302.8,0l28.41,16.43L302.56,33.1c-1.29-3-.66-5.81-.65-8.52s-.88-4.06-3.75-3.82c-1.49.12-3,0-4.5,0q-143.19,0-286.38.07c-3.84,0-5.94-.53-5.53-5.05.25-2.76,1-3.87,3.84-3.67s5.66,0,8.49,0q140.19,0,280.39,0c8.6,0,7.23.78,7.4-7.51C301.91,3.2,301.38,1.64,302.8,0Z"/><path class="cls-2" d="M29.07,72.42,0,55.68l29.27-17c0,3.89.08,7.09,0,10.28-.07,2.12.71,3.09,2.89,2.92,1.33-.1,2.66,0,4,0q141.73,0,283.46.05c2.24,0,5.39-1.53,5.67,3.21s-1.78,5-5.53,4.95q-141-.13-282-.07c-8.43,0-8.43,0-8.52,8.2C29.25,69.38,29.16,70.51,29.07,72.42Z"/></g></g></svg>