<svg xmlns="http://www.w3.org/2000/svg" viewBox="0 0 357.34 33.62"><defs><style>.cls-1{fill:gray;}.cls-2{fill:#848484;}</style></defs><title>Ресурс 6</title><g id="Слой_2" data-name="Слой 2"><g id="Слой_1-2" data-name="Слой 1"><path class="cls-1" d="M328.22,33.62V0l29.12,16.76Z"/><path class="cls-1" d="M29.06,0c0,10.45,0,19.77,0,29.09,0,1.16-.09,2.31-.18,4.36L0,16.8Z"/><path class="cls-2" d="M272.22,13c1.38-.09,2.74,1,2.73,3.81,0,2.51-.84,4.22-3.61,4.27s-4.32-1.45-4.44-4.2S268.41,13.11,272.22,13Z"/><path class="cls-2" d="M209.58,13.09c2.49-.1,4.25.75,4.32,3.54s-1.36,4.34-4.15,4.46-3.84-1.38-3.9-4S206.76,13,209.58,13.09Z"/><path class="cls-2" d="M168.23,13.09c2.82-.12,3.77,1.4,3.71,4s-1.2,4.08-3.89,4-4.21-1.78-4.16-4.48S165.72,13,168.23,13.09Z"/><path class="cls-2" d="M308.84,16.65c-.12-2,.78-3.57,3.64-3.58,2.46,0,4.29.66,4.41,3.47s-1.25,4.39-4,4.56S308.91,19.82,308.84,16.65Z"/><path class="cls-2" d="M102.85,16.69c-.12-2.26,1-3.64,3.77-3.62,2.51,0,4.23.83,4.27,3.61s-1.41,4.32-4.19,4.42S102.87,19.63,102.85,16.69Z"/><path class="cls-2" d="M65,13c4,.2,5.16,1.73,4.89,4.3-.29,2.82-2.11,4-4.81,3.76s-3.28-2.28-3.21-4.65C62,13.47,63.83,12.93,65,13Z"/><path class="cls-2" d="M291.57,13.07c3.13,0,4.47,1.37,4.32,4s-1.6,4-4.13,4-3.84-1.75-3.88-4.23C287.85,14.1,289.47,13,291.57,13.07Z"/><path class="cls-2" d="M255,17.15c-.32,2.45-1.64,4-4.2,3.91s-3.84-1.76-3.87-4.24c0-2.72,1.58-3.77,4.16-3.74S254.93,14.52,255,17.15Z"/><path class="cls-2" d="M233.92,17.4a3.78,3.78,0,0,1-4.13,3.66c-2.58-.07-3.86-1.73-3.9-4.21,0-2.71,1.54-3.79,4.13-3.76S234,14.44,233.92,17.4Z"/><path class="cls-2" d="M189.35,21.19c-3-.32-4.36-1.7-4.45-4.22-.1-2.68,1.37-3.89,4-3.89s4,1.15,4,3.87S191.19,20.62,189.35,21.19Z"/><path class="cls-2" d="M147.73,13.08c2.56-.06,4.17.95,4.18,3.71,0,2.55-1.31,4.13-3.83,4.26s-4-1.43-4.17-3.92C143.71,14.49,145.08,13.14,147.73,13.08Z"/><path class="cls-2" d="M130.94,17c-.1,2.31-1.32,3.93-3.86,4.06s-4-1.44-4.17-3.92,1.15-4,3.82-4S130.84,14.06,130.94,17Z"/><path class="cls-2" d="M85.71,21.15c-2.48-.4-3.83-1.85-3.83-4.36,0-2.73,1.62-3.76,4.19-3.71s4,1.42,3.82,4.05S88.21,20.92,85.71,21.15Z"/><path class="cls-2" d="M49,16.54c-.18,2.84-1.43,4.45-4,4.52s-3.95-1.52-4.09-4c-.15-2.66,1.26-3.92,3.91-4S48.8,14.26,49,16.54Z"/></g></g></svg>