<svg xmlns="http://www.w3.org/2000/svg" viewBox="0 0 131.56 109.18"><defs><style>.cls-1{fill:#464646;}.cls-2{fill:#fefefe;}.cls-3{fill:#f6f4f2;}</style></defs><title>Ресурс 7</title><g id="Слой_2" data-name="Слой 2"><g id="Слой_1-2" data-name="Слой 1"><path class="cls-1" d="M66.2,109.15c-16,0-32,0-48,0-12.93,0-16.65-5-17.88-17.84C-1.71,69.75,5.55,50.38,12.05,30.7c2.19-6.63,4.29-13.28,6.52-19.89C20.9,3.93,25.85.11,33.11.08q32.72-.16,65.45,0c7.86,0,12.49,3.45,14.95,10.86Q122,36.7,130.32,62.55c2,6.32.9,12.89,1.1,19.35.11,3.66,0,7.33,0,11,0,10.84-5.19,16.13-16.28,16.22C98.84,109.24,82.52,109.15,66.2,109.15Zm0-43.54c-16.32,0-32.65.1-49-.07-4.19,0-5.63,1.51-5.53,5.56.18,7.32.1,14.66,0,22,0,3.39,1.45,4.71,4.84,4.71q49.47-.09,98.94,0c2.8,0,3.69-.83,3.6-3.77-.25-8-.28-16,0-24,.13-3.57-1-4.53-4.44-4.5C98.53,65.69,82.37,65.61,66.22,65.61Zm8.24-30.82c1.33,0,2.66,0,4,0,1,0,2.11,0,2.2,1.39.06.95.41,2.3-.79,2.6-6.06,1.49-3.33,6.31-3.72,9.83a2.7,2.7,0,0,0,3,3.14c2.33,0,4.66,0,7-.05,1.55,0,2.76-1,2.49-2.5-.66-3.61,2.81-8.67-3.5-10.43a1.9,1.9,0,0,1-.9-1.55c.43-6.2-3.74-6-7.94-5.82-1.83.07-3.66,0-5.49,0-1,0-2.12,0-2.15-1.4,0-1.1-.41-2.37,1.22-2.83,6.28-1.79,3.47-6.89,3.16-10.41-.33-3.71-4.22-2.17-6.64-2.27-2.12-.09-5.59-1-5.54,2.33s-2.92,8.28,2.8,10.25a2.16,2.16,0,0,1,1.73,2.53c-.11,2-1.59,1.79-2.89,1.8-2.33,0-4.66.1-7,0-3.53-.17-5.91.86-5.79,4.93,0,1.16.11,2.26-1.43,2.76C42.48,41,45.19,45.75,45.36,49.2c.2,4.08,4,2.36,6.39,2.49,2,.1,5,1.16,5.6-1.66.71-3.28,1.55-7-.69-10.06-1-1.35-4.46-1.07-3.28-3.9,1.09-2.61,3.84-.89,5.81-1.27a11.22,11.22,0,0,1,3,0c1.22.1,2.8-.51,3.18,1.47s-.77,2.41-2.33,3.08c-2.73,1.18-3.61,10.17-1.35,11.89,1.68,1.28,10.37.49,11.24-1,1.79-3.1.33-9.61-2.75-11a2.38,2.38,0,0,1-1.56-2.64c0-1.72,1.13-1.76,2.35-1.75Z"/><path class="cls-2" d="M66.22,65.61c16.16,0,32.31.09,48.47-.07,3.47,0,4.57.92,4.44,4.5-.29,8-.25,16,0,24,.09,2.94-.8,3.77-3.6,3.77q-49.47-.09-98.94,0c-3.39,0-4.88-1.32-4.84-4.71.07-7.33.15-14.66,0-22-.1-4,1.34-5.6,5.53-5.56C33.57,65.71,49.9,65.61,66.22,65.61Zm44.55,16.26c.08-4.1-2.59-7-6.58-7.11a6.93,6.93,0,1,0-.35,13.85C107.89,88.71,110.69,86,110.77,81.86Zm-21.49-.29a7,7,0,0,0-7.08-6.82,6.93,6.93,0,0,0,.24,13.85A7,7,0,0,0,89.28,81.57Z"/><path class="cls-3" d="M74.46,34.78H71c-1.22,0-2.36,0-2.35,1.75a2.38,2.38,0,0,0,1.56,2.64c3.08,1.43,4.53,7.95,2.75,11-.87,1.51-9.55,2.3-11.24,1C59.43,49.52,60.31,40.53,63,39.35c1.56-.67,2.7-1.16,2.33-3.08s-2-1.37-3.18-1.47a11.22,11.22,0,0,0-3,0c-2,.37-4.72-1.35-5.81,1.27-1.18,2.83,2.29,2.55,3.28,3.9,2.24,3,1.4,6.78.69,10.06-.61,2.82-3.64,1.76-5.6,1.66-2.34-.12-6.19,1.59-6.39-2.49-.17-3.45-2.87-8.25,2.94-10.12,1.54-.49,1.47-1.6,1.43-2.76-.12-4.07,2.26-5.1,5.79-4.93,2.32.11,4.66,0,7,0,1.3,0,2.77.22,2.89-1.8a2.16,2.16,0,0,0-1.73-2.53c-5.72-2-2.76-6.78-2.8-10.25s3.43-2.41,5.54-2.33c2.42.1,6.31-1.44,6.64,2.27.31,3.52,3.12,8.62-3.16,10.41-1.63.46-1.24,1.74-1.22,2.83,0,1.44,1.16,1.39,2.15,1.4,1.83,0,3.66.07,5.49,0,4.2-.17,8.37-.38,7.94,5.82a1.9,1.9,0,0,0,.9,1.55c6.31,1.76,2.84,6.83,3.5,10.43.27,1.49-.93,2.45-2.49,2.5-2.33.07-4.66,0-7,.05a2.7,2.7,0,0,1-3-3.14c.39-3.53-2.34-8.35,3.72-9.83,1.21-.3.86-1.65.79-2.6-.09-1.39-1.19-1.37-2.2-1.39C77.13,34.77,75.79,34.78,74.46,34.78Z"/><path class="cls-1" d="M110.77,81.86c-.08,4.12-2.88,6.85-6.93,6.74a6.93,6.93,0,1,1,.35-13.85C108.18,74.88,110.85,77.76,110.77,81.86Z"/><path class="cls-1" d="M89.28,81.57a7,7,0,0,1-6.85,7,6.93,6.93,0,0,1-.24-13.85A7,7,0,0,1,89.28,81.57Z"/></g></g></svg>