<svg xmlns="http://www.w3.org/2000/svg" viewBox="0 0 51.68 130.91"><defs><style>.cls-1{fill:#9cca41;}</style></defs><title>Ресурс 2</title><g id="Слой_2" data-name="Слой 2"><g id="Слой_1-2" data-name="Слой 1"><path class="cls-1" d="M9.81,106.48c0-6.66-.05-13.32,0-20,0-2.1-.32-3.24-2.83-3.58-4.93-.67-7-4.06-7-8.82,0-10.49-.06-21,0-31.47,0-5.82,3-9.24,8.73-9.37,11.82-.27,23.64-.2,35.46,0,4.59.06,7.14,3.24,7.25,7.44.29,11.65.2,23.31.07,35,0,3.71-2.14,6.53-5.85,7.09-3.22.49-3.42,2.17-3.4,4.75.09,12.65-.17,25.31.15,38,.12,4.59-1.43,5.65-5.7,5.47-7.65-.32-15.32-.2-23,0-3,.07-4.13-.74-4-3.9C10,120.14,9.81,113.3,9.81,106.48Z"/><path class="cls-1" d="M26.55,25.14A12.57,12.57,0,1,1,39.28,12.47,12.85,12.85,0,0,1,26.55,25.14Z"/></g></g></svg>