<svg xmlns="http://www.w3.org/2000/svg" viewBox="0 0 228.75 116.92"><defs><style>.cls-1{fill:#f48921;}.cls-2{fill:#f6f4f2;}</style></defs><title>Ресурс 5</title><g id="Слой_2" data-name="Слой 2"><g id="Слой_1-2" data-name="Слой 1"><path class="cls-1" d="M111.69,116.91c-29.16,0-58.31.06-87.47,0a23.06,23.06,0,0,1-23-19.68C-.4,86,5.84,74.52,16.84,72c6.71-1.55,7.23-4.39,7.29-10.16.2-19.55,22.22-31.86,40.09-22.6,2.9,1.5,3.79,1.54,5.16-1.66,12-28,39.26-40.21,62.94-37.07,30.19,4,50.81,24.88,54.48,54.42.43,3.49.87,4.23,4.6,3.31,12.3-3,22.91.52,30.73,10.45,7.55,9.58,8.64,20.47,3.29,31.43-5.44,11.16-14.73,16.81-27.26,16.82Zm-5.22-51h-5c-7.42,0-8.25.75-8.31,8.27,0,2.46-.14,4.1-3.33,4-2.48-.09-3.91,1.49-3.87,4.17.3,18.37-2.69,15.26,14.39,15.62,3.17.07,5.84-1,5.23-4.31-1-5.21,3.81-11.88-3.64-15.53a.93.93,0,0,0-.49,0c-3.37.42-3.16-1.81-3.2-4.1,0-2.64,1.46-2.94,3.54-2.91,4.16.06,8.33.11,12.49,0,2.37-.07,3.39.83,3.21,3.19C117.36,76,118,78.11,115,78c-4-.09-5,2.39-4.93,5.89.1,3.16,0,6.33.05,9.49.06,2.7,1.29,4.5,4.22,4.47,17.67-.18,15.68,2.57,15.76-14.95,0-3-1.29-4.94-4.39-4.85-3.56.11-2.91-2.24-3-4.35-.1-2.78,1.76-2.71,3.68-2.69,4.16,0,8.33.1,12.49,0,2.53-.07,3.13,1.2,3.05,3.39-.06,1.88.2,3.73-2.67,3.63-3.72-.12-4.85,2.23-4.82,5.52s0,6.66,0,10c0,2,.77,4,2.86,4.13,4.81.27,10.24,1.43,14.32-.32,5.48-2.35,1.67-8.6,2.51-13.06.45-2.42.46-5.9-2.8-5.92-4.71,0-4.34-2.59-4.31-5.73,0-5.32-1.45-6.72-6.81-6.77-4.83,0-9.66-.06-14.49,0-2,0-3.31-.43-3-2.73.22-1.74-1-4.33,2.44-4.27,4,.06,5-2.4,4.94-5.9-.09-2.83-.11-5.67,0-8.49.17-4.11-1.77-5.74-5.77-5.52-2.82.16-5.66.1-8.49,0s-6,.52-5.61,4c.57,5.27-3,11.37,2.77,15.72a1.42,1.42,0,0,0,1,.17c3.61-.53,3.46,1.78,3.51,4.29.07,3.3-2.17,2.68-4.07,2.71C111.13,65.92,108.8,65.89,106.46,65.9Z"/><path class="cls-1" d="M110.69,116.91c-29.16,0-58.31.06-87.47,0a23.06,23.06,0,0,1-23-19.68C-1.4,86,4.84,74.52,15.84,72c6.71-1.55,7.23-4.39,7.29-10.16.2-19.55,22.22-31.86,40.09-22.6,2.9,1.5,3.79,1.54,5.16-1.66,12-28,39.26-40.21,62.94-37.07,30.19,4,50.81,24.88,54.48,54.42.43,3.49.87,4.23,4.6,3.31,12.3-3,22.91.52,30.73,10.45,7.55,9.58,8.64,20.47,3.29,31.43-5.44,11.16-14.73,16.81-27.26,16.82Zm-5.22-51h-5c-7.42,0-8.25.75-8.31,8.27,0,2.46-.14,4.1-3.33,4-2.48-.09-3.91,1.49-3.87,4.17.3,18.37-2.69,15.26,14.39,15.62,3.17.07,5.84-1,5.23-4.31-1-5.21,3.81-11.88-3.64-15.53a.93.93,0,0,0-.49,0c-3.37.42-3.16-1.81-3.2-4.1,0-2.64,1.46-2.94,3.54-2.91,4.16.06,8.33.11,12.49,0,2.37-.07,3.39.83,3.21,3.19C116.36,76,117,78.11,114,78c-4-.09-5,2.39-4.93,5.89.1,3.16,0,6.33.05,9.49.06,2.7,1.29,4.5,4.22,4.47,17.67-.18,15.68,2.57,15.76-14.95,0-3-1.29-4.94-4.39-4.85-3.56.11-2.91-2.24-3-4.35-.1-2.78,1.76-2.71,3.68-2.69,4.16,0,8.33.1,12.49,0,2.53-.07,3.13,1.2,3.05,3.39-.06,1.88.2,3.73-2.67,3.63-3.72-.12-4.85,2.23-4.82,5.52s0,6.66,0,10c0,2,.77,4,2.86,4.13,4.81.27,10.24,1.43,14.32-.32,5.48-2.35,1.67-8.6,2.51-13.06.45-2.42.46-5.9-2.8-5.92-4.71,0-4.34-2.59-4.31-5.73,0-5.32-1.45-6.72-6.81-6.77-4.83,0-9.66-.06-14.49,0-2,0-3.31-.43-3-2.73.22-1.74-1-4.33,2.44-4.27,4,.06,5-2.4,4.94-5.9-.09-2.83-.11-5.67,0-8.49.17-4.11-1.77-5.74-5.77-5.52-2.82.16-5.66.1-8.49,0s-6,.52-5.61,4c.57,5.27-3,11.37,2.77,15.72a1.42,1.42,0,0,0,1,.17c3.61-.53,3.46,1.78,3.51,4.29.07,3.3-2.17,2.68-4.07,2.71C110.13,65.92,107.8,65.89,105.46,65.9Z"/><path class="cls-1" d="M111.69,116.91c-29.16,0-58.31.06-87.47,0a23.06,23.06,0,0,1-23-19.68C-.4,86,5.84,74.52,16.84,72c6.71-1.55,7.23-4.39,7.29-10.16.2-19.55,22.22-31.86,40.09-22.6,2.9,1.5,3.79,1.54,5.16-1.66,12-28,39.26-40.21,62.94-37.07,30.19,4,50.81,24.88,54.48,54.42.43,3.49.87,4.23,4.6,3.31,12.3-3,22.91.52,30.73,10.45,7.55,9.58,8.64,20.47,3.29,31.43-5.44,11.16-14.73,16.81-27.26,16.82Zm-5.22-51h-5c-7.42,0-8.25.75-8.31,8.27,0,2.46-.14,4.1-3.33,4-2.48-.09-3.91,1.49-3.87,4.17.3,18.37-2.69,15.26,14.39,15.62,3.17.07,5.84-1,5.23-4.31-1-5.21,3.81-11.88-3.64-15.53a.93.93,0,0,0-.49,0c-3.37.42-3.16-1.81-3.2-4.1,0-2.64,1.46-2.94,3.54-2.91,4.16.06,8.33.11,12.49,0,2.37-.07,3.39.83,3.21,3.19C117.36,76,118,78.11,115,78c-4-.09-5,2.39-4.93,5.89.1,3.16,0,6.33.05,9.49.06,2.7,1.29,4.5,4.22,4.47,17.67-.18,15.68,2.57,15.76-14.95,0-3-1.29-4.94-4.39-4.85-3.56.11-2.91-2.24-3-4.35-.1-2.78,1.76-2.71,3.68-2.69,4.16,0,8.33.1,12.49,0,2.53-.07,3.13,1.2,3.05,3.39-.06,1.88.2,3.73-2.67,3.63-3.72-.12-4.85,2.23-4.82,5.52s0,6.66,0,10c0,2,.77,4,2.86,4.13,4.81.27,10.24,1.43,14.32-.32,5.48-2.35,1.67-8.6,2.51-13.06.45-2.42.46-5.9-2.8-5.92-4.71,0-4.34-2.59-4.31-5.73,0-5.32-1.45-6.72-6.81-6.77-4.83,0-9.66-.06-14.49,0-2,0-3.31-.43-3-2.73.22-1.74-1-4.33,2.44-4.27,4,.06,5-2.4,4.94-5.9-.09-2.83-.11-5.67,0-8.49.17-4.11-1.77-5.74-5.77-5.52-2.82.16-5.66.1-8.49,0s-6,.52-5.61,4c.57,5.27-3,11.37,2.77,15.72a1.42,1.42,0,0,0,1,.17c3.61-.53,3.46,1.78,3.51,4.29.07,3.3-2.17,2.68-4.07,2.71C111.13,65.92,108.8,65.89,106.46,65.9Z"/><path class="cls-2" d="M106.26,66c2.33,0,4.66,0,7,0,1.91,0,4.14.59,4.07-2.71-.05-2.52.1-4.83-3.51-4.29a1.42,1.42,0,0,1-1-.17c-5.73-4.34-2.2-10.45-2.77-15.72-.37-3.46,2.65-4.06,5.61-4s5.67.15,8.49,0c4-.23,5.94,1.41,5.77,5.52-.12,2.83-.09,5.66,0,8.49.11,3.49-.91,6-4.94,5.9-3.46-.05-2.22,2.53-2.44,4.27-.29,2.3,1,2.76,3,2.73,4.83-.08,9.66-.06,14.49,0,5.36,0,6.85,1.45,6.81,6.77,0,3.14-.4,5.71,4.31,5.73,3.26,0,3.26,3.5,2.8,5.92-.84,4.46,3,10.72-2.51,13.06-4.08,1.75-9.51.58-14.32.32-2.08-.11-2.82-2.15-2.86-4.13-.06-3.33,0-6.66,0-10s1.1-5.64,4.82-5.52c2.87.09,2.61-1.75,2.67-3.63.08-2.2-.53-3.46-3.05-3.39-4.16.11-8.33,0-12.49,0-1.92,0-3.79-.09-3.68,2.69.08,2.11-.57,4.46,3,4.35,3.09-.1,4.4,1.87,4.39,4.85-.09,17.51,1.91,14.77-15.76,14.95-2.93,0-4.16-1.77-4.22-4.47-.07-3.16,0-6.33-.05-9.49-.11-3.49.89-6,4.93-5.89,3,.06,2.34-2.07,2.47-3.81.18-2.36-.84-3.26-3.21-3.19-4.16.12-8.33.08-12.49,0-2.08,0-3.58.27-3.54,2.91,0,2.3-.18,4.52,3.2,4.1a.93.93,0,0,1,.49,0c7.45,3.65,2.66,10.32,3.64,15.53.61,3.28-2.06,4.38-5.23,4.31-17.08-.37-14.09,2.75-14.39-15.62,0-2.69,1.39-4.26,3.87-4.17,3.19.11,3.31-1.52,3.33-4,.06-7.52.89-8.26,8.31-8.27Z"/></g></g></svg>